<svg id="Layer_1" data-name="Layer 1" xmlns="http://www.w3.org/2000/svg" viewBox="0 0 302 92.82"><defs><style>.cls-1{fill:#42b4e4;}.cls-2{fill:#005586;}</style></defs><title>CHOP D3b Logo Stacked</title><path class="cls-1" d="M91.2,68.46a1,1,0,0,1,.85-.56.93.93,0,0,1,.91.88,1.17,1.17,0,0,1-.1.47,4.32,4.32,0,0,1-1.77,2.08,5.07,5.07,0,0,1-2.73.77,4.89,4.89,0,0,1-3.55-1.4,5.42,5.42,0,0,1-1.55-3.53,14.55,14.55,0,0,1,0-2.8,5.38,5.38,0,0,1,1.55-3.52,4.82,4.82,0,0,1,3.54-1.41,5.21,5.21,0,0,1,2.74.76,4.29,4.29,0,0,1,1.77,2.09,1,1,0,0,1,.1.47.93.93,0,0,1-.91.87,1,1,0,0,1-.85-.56,3.09,3.09,0,0,0-2.85-1.85,2.89,2.89,0,0,0-2.24.94,3.84,3.84,0,0,0-1,2.38,17.24,17.24,0,0,0,0,2.49,3.2,3.2,0,0,0,3.22,3.27A3.1,3.1,0,0,0,91.2,68.46Z"/><path class="cls-1" d="M102.75,66.89A1,1,0,0,1,101.63,68H96.68v.21A2.07,2.07,0,0,0,99,70.39a6.17,6.17,0,0,0,2-.42.84.84,0,0,1,1.26.71.88.88,0,0,1-.47.79,5.55,5.55,0,0,1-2.84.61,4.06,4.06,0,0,1-2.88-1,4,4,0,0,1-1.19-2.73,13.07,13.07,0,0,1,0-2.17,3.81,3.81,0,0,1,1.22-2.67,4,4,0,0,1,2.77-1,3.69,3.69,0,0,1,3.88,3.92Zm-2-.35q.18,0,.21-.21a2,2,0,0,0-2.08-2.21,2.07,2.07,0,0,0-2.19,2.42Z"/><path class="cls-1" d="M112.88,71a.9.9,0,0,1-.92,1,1,1,0,0,1-.93-1V66.26a1.86,1.86,0,0,0-2-2,3.91,3.91,0,0,0-2.08.49V71a.93.93,0,0,1-.93,1,1,1,0,0,1-.93-1V64.16a.79.79,0,0,1,.37-.72,6.29,6.29,0,0,1,3.62-1c2.52,0,3.83,1.31,3.83,3.69Z"/><path class="cls-1" d="M118.45,72.08c-1.91,0-2.9-1.26-2.9-3.15V61.62a.92.92,0,0,1,.92-.94.94.94,0,0,1,.93.94V63h2.41a.83.83,0,1,1,0,1.65H117.4V69c0,.93.42,1.38,1.24,1.38a6.11,6.11,0,0,0,1.26-.26.85.85,0,0,1,1.14.82.88.88,0,0,1-.63.86A4.83,4.83,0,0,1,118.45,72.08Z"/><path class="cls-1" d="M130.51,66.89A1,1,0,0,1,129.39,68h-4.95v.21a2.07,2.07,0,0,0,2.31,2.17,6.17,6.17,0,0,0,2-.42.84.84,0,0,1,1.26.71.88.88,0,0,1-.48.79,5.48,5.48,0,0,1-2.83.61,4.1,4.1,0,0,1-2.89-1,4,4,0,0,1-1.18-2.73,13.07,13.07,0,0,1,0-2.17,3.77,3.77,0,0,1,1.22-2.67,3.94,3.94,0,0,1,2.76-1,3.69,3.69,0,0,1,3.89,3.92Zm-2-.35c.12,0,.19-.07.2-.21a1.94,1.94,0,0,0-2.08-2.21,2.06,2.06,0,0,0-2.18,2.42Z"/><path class="cls-1" d="M138,63.55a.85.85,0,0,1-.87.87,4.22,4.22,0,0,1-.55-.09,3.63,3.63,0,0,0-.76-.07c-.81,0-1.21.48-1.21,1.4v5.39a.93.93,0,1,1-1.86,0V65.37a2.66,2.66,0,0,1,2.94-2.89,6.19,6.19,0,0,1,1.59.19A.87.87,0,0,1,138,63.55Z"/><path class="cls-1" d="M145,63V62.3a2.72,2.72,0,0,1,2.92-3,6.4,6.4,0,0,1,1.65.19.87.87,0,0,1,.71.88.82.82,0,0,1-.87.82,4.28,4.28,0,0,1-.63-.07,3.86,3.86,0,0,0-.74-.09c-.78,0-1.19.45-1.19,1.38V63h2.24a.83.83,0,1,1,0,1.65h-2.24V71A.93.93,0,1,1,145,71V64.6h-.52a.84.84,0,0,1-.86-.81.83.83,0,0,1,.86-.84Z"/><path class="cls-1" d="M158.07,63.46A3.51,3.51,0,0,1,159.31,66a17.38,17.38,0,0,1,0,2.5,3.65,3.65,0,0,1-1.24,2.57,4.36,4.36,0,0,1-5.58,0,3.8,3.8,0,0,1-1.26-2.57,20.85,20.85,0,0,1,0-2.5,3.6,3.6,0,0,1,1.25-2.54,4.48,4.48,0,0,1,5.59,0Zm-5,2.78a13.6,13.6,0,0,0,0,2,2.07,2.07,0,0,0,2.18,2,2.1,2.1,0,0,0,2.21-2c0-.44,0-1.12,0-2a2.06,2.06,0,0,0-2.21-2A2,2,0,0,0,153.09,66.24Z"/><path class="cls-1" d="M167,63.55a.85.85,0,0,1-.87.87,4.22,4.22,0,0,1-.55-.09,3.63,3.63,0,0,0-.76-.07c-.81,0-1.21.48-1.21,1.4v5.39a.93.93,0,1,1-1.86,0V65.37a2.66,2.66,0,0,1,2.94-2.89,6.13,6.13,0,0,1,1.59.19A.87.87,0,0,1,167,63.55Z"/><path class="cls-1" d="M175.14,71.91a1.34,1.34,0,0,1-1.43-1.44V61a1.33,1.33,0,0,1,1.43-1.42H178c3.51,0,5.42,2,5.61,5.16a15.14,15.14,0,0,1,0,1.91A5.75,5.75,0,0,1,182,70.49a5.41,5.41,0,0,1-4,1.42Zm6.58-7c-.13-2.32-1.39-3.5-3.75-3.5h-2.38v8.59H178c2.4,0,3.61-1.27,3.73-3.44A11.64,11.64,0,0,0,181.72,65Z"/><path class="cls-1" d="M193.13,70.42a.77.77,0,0,1-.33.68,6.75,6.75,0,0,1-3.64,1c-2.31,0-3.59-1.22-3.59-3a2.68,2.68,0,0,1,.91-2.07,3.77,3.77,0,0,1,2.64-.84,10.09,10.09,0,0,1,2.22.3v-.58c0-1.19-.59-1.69-1.94-1.69a5.65,5.65,0,0,0-1.9.38c-.76.23-1.28-.12-1.28-.7a.94.94,0,0,1,.61-.86,6.1,6.1,0,0,1,2.68-.52c2.31,0,3.62,1.08,3.62,3.39Zm-1.79-.51V68a9.21,9.21,0,0,0-2.11-.3c-1.1,0-1.84.49-1.84,1.32s.68,1.47,1.93,1.47A3.14,3.14,0,0,0,191.34,69.91Z"/><path class="cls-1" d="M198.68,72.08c-1.91,0-2.9-1.26-2.9-3.15V61.62a.92.92,0,0,1,.92-.94.94.94,0,0,1,.93.94V63H200a.83.83,0,1,1,0,1.65h-2.41V69c0,.93.42,1.38,1.24,1.38a6.11,6.11,0,0,0,1.26-.26.85.85,0,0,1,1.14.82.88.88,0,0,1-.63.86A4.83,4.83,0,0,1,198.68,72.08Z"/><path class="cls-1" d="M210.23,70.42a.77.77,0,0,1-.33.68,6.75,6.75,0,0,1-3.64,1c-2.31,0-3.59-1.22-3.59-3a2.68,2.68,0,0,1,.91-2.07,3.77,3.77,0,0,1,2.64-.84,10.09,10.09,0,0,1,2.22.3v-.58c0-1.19-.59-1.69-1.94-1.69a5.65,5.65,0,0,0-1.9.38c-.76.23-1.28-.12-1.28-.7a.94.94,0,0,1,.61-.86,6.1,6.1,0,0,1,2.68-.52c2.31,0,3.62,1.08,3.62,3.39Zm-1.79-.51V68a9.21,9.21,0,0,0-2.11-.3c-1.1,0-1.84.49-1.84,1.32s.68,1.47,1.93,1.47A3.14,3.14,0,0,0,208.44,69.91Z"/><path class="cls-1" d="M219.46,71.91A1.35,1.35,0,0,1,218,70.47V61a1.33,1.33,0,0,1,1.44-1.42h2.81c3.52,0,5.42,2,5.62,5.16a15.14,15.14,0,0,1,0,1.91,5.75,5.75,0,0,1-1.58,3.81,5.44,5.44,0,0,1-4.06,1.42ZM226,65c-.12-2.32-1.38-3.5-3.74-3.5h-2.38v8.59h2.38c2.4,0,3.6-1.27,3.73-3.44A10.15,10.15,0,0,0,226,65Z"/><path class="cls-1" d="M235.57,63.55a.85.85,0,0,1-.87.87,3.93,3.93,0,0,1-.54-.09,3.78,3.78,0,0,0-.77-.07c-.81,0-1.21.48-1.21,1.4v5.39a.93.93,0,1,1-1.85,0V65.37a2.65,2.65,0,0,1,2.93-2.89,6.27,6.27,0,0,1,1.6.19A.87.87,0,0,1,235.57,63.55Z"/><path class="cls-1" d="M237.2,60.33a1,1,0,0,1,2.09,0,1,1,0,0,1-1,1.06A1,1,0,0,1,237.2,60.33Zm2,10.7a.93.93,0,0,1-.93,1,1,1,0,0,1-.92-1V63.55a.92.92,0,0,1,.92-.95,1,1,0,0,1,.93.95Z"/><path class="cls-1" d="M249.64,64l-2.5,6.68a1.7,1.7,0,0,1-3.32,0l-2.5-6.74a1,1,0,1,1,1.78-.65l2.29,6.56a.09.09,0,0,0,.18,0l2.25-6.5a1,1,0,1,1,1.82.63Z"/><path class="cls-1" d="M258.75,66.89A1,1,0,0,1,257.63,68h-4.95v.21A2.07,2.07,0,0,0,255,70.39a6.17,6.17,0,0,0,2-.42.84.84,0,0,1,1.26.71.88.88,0,0,1-.48.79,5.51,5.51,0,0,1-2.83.61,4.1,4.1,0,0,1-2.89-1,4.06,4.06,0,0,1-1.19-2.73,15.68,15.68,0,0,1,0-2.17,3.82,3.82,0,0,1,1.23-2.67,3.94,3.94,0,0,1,2.76-1,3.69,3.69,0,0,1,3.89,3.92Zm-2-.35q.18,0,.21-.21a2,2,0,0,0-2.09-2.21,2.06,2.06,0,0,0-2.18,2.42Z"/><path class="cls-1" d="M268.88,71a.9.9,0,0,1-.93,1,1,1,0,0,1-.92-1V66.26a1.86,1.86,0,0,0-2-2,3.91,3.91,0,0,0-2.08.49V71a.93.93,0,0,1-.93,1,1,1,0,0,1-.93-1V64.16a.79.79,0,0,1,.37-.72,6.29,6.29,0,0,1,3.62-1c2.52,0,3.83,1.31,3.83,3.69Z"/><path class="cls-1" d="M85,89.41A1.33,1.33,0,0,1,83.59,88V78.53A1.33,1.33,0,0,1,85,77.11h2.82c3.51,0,5.42,2,5.61,5.16a12.14,12.14,0,0,1,0,1.91A5.75,5.75,0,0,1,91.9,88a5.44,5.44,0,0,1-4.06,1.42Zm6.58-6.94c-.12-2.33-1.38-3.5-3.74-3.5H85.48v8.59h2.38c2.39,0,3.6-1.28,3.72-3.45A11.5,11.5,0,0,0,91.6,82.47Z"/><path class="cls-1" d="M96,77.83a1,1,0,0,1,2.08,0,1,1,0,1,1-2.08,0Zm2,10.71a.92.92,0,0,1-.93.94,1,1,0,0,1-.93-.94V81.05a.93.93,0,0,1,.93-1,1,1,0,0,1,.93,1Z"/><path class="cls-1" d="M105,84.06c1.64.4,2.46,1.29,2.46,2.64a2.54,2.54,0,0,1-1,2.1,3.86,3.86,0,0,1-2.51.78,4.9,4.9,0,0,1-3.22-1,.9.9,0,0,1-.18-1.19.81.81,0,0,1,1.23-.18,3.71,3.71,0,0,0,2.25.69c1,0,1.61-.46,1.61-1.16,0-.51-.35-.82-1.2-1s-1.25-.28-1.26-.3c-1.7-.42-2.54-1.29-2.54-2.62a2.46,2.46,0,0,1,1-2,3.93,3.93,0,0,1,2.49-.77,4.06,4.06,0,0,1,2.64.82.87.87,0,0,1,.08,1.19.89.89,0,0,1-1.2.13,3.07,3.07,0,0,0-1.61-.44c-1,0-1.58.37-1.58,1.08,0,.49.32.76,1.21,1Z"/><path class="cls-1" d="M115.4,86.54a.87.87,0,0,1,.81-.51.89.89,0,0,1,.87,1,2.44,2.44,0,0,1-1,1.71,3.9,3.9,0,0,1-2.69.89,4,4,0,0,1-2.8-1A3.69,3.69,0,0,1,109.32,86a17.11,17.11,0,0,1,0-2.48A3.55,3.55,0,0,1,110.54,81a4.17,4.17,0,0,1,2.82-1,3.86,3.86,0,0,1,2.67.89,2.42,2.42,0,0,1,1,1.72.88.88,0,0,1-.88.94.8.8,0,0,1-.78-.51,2.24,2.24,0,0,0-4.22.67,14.39,14.39,0,0,0,0,2.08,2.08,2.08,0,0,0,2.22,2A2,2,0,0,0,115.4,86.54Z"/><path class="cls-1" d="M125.94,81a3.57,3.57,0,0,1,1.24,2.54,20.85,20.85,0,0,1,0,2.5,3.69,3.69,0,0,1-1.24,2.57,4,4,0,0,1-2.8,1,4,4,0,0,1-2.78-1A3.8,3.8,0,0,1,119.1,86a20.85,20.85,0,0,1,0-2.5A3.65,3.65,0,0,1,120.34,81a4.49,4.49,0,0,1,5.6,0Zm-5,2.78a13.59,13.59,0,0,0,0,2,2.2,2.2,0,0,0,4.39,0,16.67,16.67,0,0,0,0-2,2.21,2.21,0,0,0-4.39,0Z"/><path class="cls-1" d="M137.12,81.47l-2.5,6.68a1.7,1.7,0,0,1-3.32,0l-2.5-6.74a1,1,0,0,1,.89-1.34,1,1,0,0,1,.89.7l2.29,6.56a.1.1,0,0,0,.18,0l2.25-6.51a1,1,0,1,1,1.82.63Z"/><path class="cls-1" d="M146.22,84.39a1,1,0,0,1-1.12,1.12h-4.95v.21a2.07,2.07,0,0,0,2.31,2.17,6.12,6.12,0,0,0,2-.42.85.85,0,0,1,1.26.72.86.86,0,0,1-.47.78,5.41,5.41,0,0,1-2.83.61,4.06,4.06,0,0,1-2.89-1,4,4,0,0,1-1.19-2.73,15.53,15.53,0,0,1,0-2.16A3.85,3.85,0,0,1,139.58,81a3.94,3.94,0,0,1,2.76-1,3.69,3.69,0,0,1,3.88,3.92Zm-2-.35q.18,0,.21-.21a1.93,1.93,0,0,0-2.08-2.2A2.06,2.06,0,0,0,140.15,84Z"/><path class="cls-1" d="M153.7,81.05a.85.85,0,0,1-.88.87c-.07,0-.24,0-.54-.08a2.72,2.72,0,0,0-.77-.07c-.8,0-1.21.47-1.21,1.39v5.39a.93.93,0,1,1-1.85,0V82.87A2.66,2.66,0,0,1,151.39,80a6.19,6.19,0,0,1,1.59.19A.88.88,0,0,1,153.7,81.05Z"/><path class="cls-1" d="M155.28,81.45a.91.91,0,0,1,.07-.93.89.89,0,0,1,.77-.42.92.92,0,0,1,.94.7l2.36,5.65a.1.1,0,0,0,.07.06.09.09,0,0,0,.09-.06l2.17-5.61a1,1,0,1,1,1.82.61l-3.29,7.82a7.38,7.38,0,0,1-2.38,3.29,1.43,1.43,0,0,1-.79.26.9.9,0,0,1-.49-1.63,4.74,4.74,0,0,0,1.84-2.41Z"/><path class="cls-1" d="M170.1,77.83a1,1,0,0,1,2.08,0,1,1,0,1,1-2.08,0Zm2,10.71a.92.92,0,0,1-.93.94,1,1,0,0,1-.93-.94V81.05a.93.93,0,0,1,.93-1,1,1,0,0,1,.93,1Z"/><path class="cls-1" d="M182.84,88.54a.91.91,0,0,1-.93.94,1,1,0,0,1-.93-.94V83.76a1.85,1.85,0,0,0-2-2,3.84,3.84,0,0,0-2.08.49v6.28a.92.92,0,0,1-.93.94,1,1,0,0,1-.92-.94V81.66a.81.81,0,0,1,.37-.72A6.24,6.24,0,0,1,179,80c2.51,0,3.83,1.31,3.83,3.69Z"/><path class="cls-1" d="M196.12,89.41h-4A1.36,1.36,0,0,1,190.65,88V78.55a1.36,1.36,0,0,1,1.45-1.44H196a3.54,3.54,0,0,1,2.59.93,3,3,0,0,1,.94,2.27,2.62,2.62,0,0,1-1.59,2.7h0a2.76,2.76,0,0,1,1.94,2.86C199.88,88.24,198.36,89.41,196.12,89.41Zm-3.6-7.15h3.25c1.26,0,1.89-.56,1.89-1.7s-.63-1.68-1.89-1.68h-3.25Zm0,1.66v3.71h3.37c1.39,0,2.09-.63,2.09-1.88a1.77,1.77,0,0,0-2-1.83Z"/><path class="cls-1" d="M202.18,77.83a1,1,0,0,1,2.08,0,1,1,0,1,1-2.08,0Zm2,10.71a.92.92,0,0,1-.93.94,1,1,0,0,1-.93-.94V81.05a.93.93,0,0,1,.93-1,1,1,0,0,1,.93,1Z"/><path class="cls-1" d="M213.73,81A3.57,3.57,0,0,1,215,83.5a20.85,20.85,0,0,1,0,2.5,3.69,3.69,0,0,1-1.24,2.57,4,4,0,0,1-2.8,1,4,4,0,0,1-2.78-1A3.8,3.8,0,0,1,206.89,86a20.85,20.85,0,0,1,0-2.5A3.65,3.65,0,0,1,208.13,81a4.49,4.49,0,0,1,5.6,0Zm-5,2.78a13.59,13.59,0,0,0,0,2,2.2,2.2,0,0,0,4.39,0,16.67,16.67,0,0,0,0-2,2.21,2.21,0,0,0-4.39,0Z"/><path class="cls-1" d="M229.91,88.54a.92.92,0,0,1-.92.94,1,1,0,0,1-.93-.94V83.78c0-1.35-.58-2-1.73-2a2.08,2.08,0,0,0-1.72.77v6a.9.9,0,0,1-.92.94,1,1,0,0,1-.93-.94V83.66c0-1.26-.58-1.89-1.71-1.89a3.2,3.2,0,0,0-1.67.43l0,.06v6.28a.92.92,0,0,1-.93.94,1,1,0,0,1-.92-.94V81.7a1,1,0,0,1,.4-.77,5.1,5.1,0,0,1,3.1-1,3.3,3.3,0,0,1,2.64,1,4.46,4.46,0,0,1,2.78-1q3.51,0,3.51,3.69Z"/><path class="cls-1" d="M240.33,84.39a1,1,0,0,1-1.12,1.12h-5v.21a2.07,2.07,0,0,0,2.31,2.17,6.17,6.17,0,0,0,2-.42.85.85,0,0,1,1.26.72.88.88,0,0,1-.47.78,5.45,5.45,0,0,1-2.84.61,3.8,3.8,0,0,1-4.07-3.76,15.53,15.53,0,0,1,0-2.16A3.88,3.88,0,0,1,233.68,81a4,4,0,0,1,2.77-1,3.71,3.71,0,0,1,3.88,3.92Zm-2-.35q.18,0,.21-.21a1.94,1.94,0,0,0-2.08-2.2A2.06,2.06,0,0,0,234.26,84Z"/><path class="cls-1" d="M246.23,80a5.61,5.61,0,0,1,2.29.51V77.86a1,1,0,0,1,.93-.94.92.92,0,0,1,.93.94V87.8a.78.78,0,0,1-.34.7,6.3,6.3,0,0,1-1.48.74,6.39,6.39,0,0,1-2.08.34,3.73,3.73,0,0,1-4-3.6,14.67,14.67,0,0,1,0-2.48A3.49,3.49,0,0,1,246.23,80Zm.28,7.82a4,4,0,0,0,2-.63V82.31a3.88,3.88,0,0,0-2.15-.54,1.81,1.81,0,0,0-2,1.94,13.83,13.83,0,0,0,0,2A2,2,0,0,0,246.51,87.8Z"/><path class="cls-1" d="M253.16,77.83a1,1,0,0,1,2.09,0,1.06,1.06,0,0,1-1,1.07A1,1,0,0,1,253.16,77.83Zm2,10.71a.92.92,0,0,1-.93.94,1,1,0,0,1-.92-.94V81.05a.93.93,0,0,1,.92-1,1,1,0,0,1,.93,1Z"/><path class="cls-1" d="M264,86.54a.86.86,0,0,1,.81-.51.89.89,0,0,1,.87,1,2.44,2.44,0,0,1-1,1.71,3.94,3.94,0,0,1-2.7.89,4,4,0,0,1-2.8-1A3.78,3.78,0,0,1,257.87,86a20.52,20.52,0,0,1,0-2.48A3.56,3.56,0,0,1,259.1,81a4.15,4.15,0,0,1,2.81-1,3.9,3.9,0,0,1,2.68.89,2.44,2.44,0,0,1,1,1.72.88.88,0,0,1-.87.94.81.81,0,0,1-.79-.51,2.23,2.23,0,0,0-4.21.67,12,12,0,0,0,0,2.08,2.08,2.08,0,0,0,2.22,2A2,2,0,0,0,264,86.54Z"/><path class="cls-1" d="M267.85,77.83a1,1,0,0,1,2.08,0,1,1,0,1,1-2.08,0Zm2,10.71a.92.92,0,0,1-.92.94,1,1,0,0,1-.93-.94V81.05a.93.93,0,0,1,.93-1,.94.94,0,0,1,.92,1Z"/><path class="cls-1" d="M280.59,88.54a.91.91,0,0,1-.93.94,1,1,0,0,1-.93-.94V83.76a1.85,1.85,0,0,0-2-2,3.82,3.82,0,0,0-2.08.49v6.28a.92.92,0,0,1-.93.94,1,1,0,0,1-.92-.94V81.66a.82.82,0,0,1,.36-.72,6.29,6.29,0,0,1,3.62-1c2.52,0,3.84,1.31,3.84,3.69Z"/><path class="cls-1" d="M291,84.39a1,1,0,0,1-1.12,1.12h-4.95v.21a2.07,2.07,0,0,0,2.31,2.17,6.17,6.17,0,0,0,2-.42.85.85,0,0,1,1.26.72A.88.88,0,0,1,290,89a5.45,5.45,0,0,1-2.84.61,3.8,3.8,0,0,1-4.07-3.76,15.53,15.53,0,0,1,0-2.16A3.88,3.88,0,0,1,284.35,81a4,4,0,0,1,2.77-1A3.71,3.71,0,0,1,291,83.9ZM289,84q.18,0,.21-.21a1.94,1.94,0,0,0-2.08-2.2A2.06,2.06,0,0,0,284.93,84Z"/><path class="cls-1" d="M39,47.89h7V34.38a44.62,44.62,0,0,1-7,5.16Z"/><path class="cls-1" d="M62.38,12.62V24.8A19.78,19.78,0,0,0,54,22.92a20.46,20.46,0,0,0-8,1.7v-12H39V29.73l-.61.5A12.84,12.84,0,1,1,37.7,9V1.24A19.6,19.6,0,0,0,30.83,0a19.83,19.83,0,0,0,0,39.66,20,20,0,0,0,7.51-1.48A5.36,5.36,0,0,0,39,37.9a45.27,45.27,0,0,0,7-5.16l.09-.08a12.8,12.8,0,0,1,16.35.41V47.89h7V12.62Z"/><path class="cls-1" d="M24.06,21.26a2.76,2.76,0,0,0,0-.86c0-.63-.1-1.24-.16-1.86a6.61,6.61,0,0,1,.62-4.38,4.44,4.44,0,0,1,.67-.82s0,0,0-.05a6.06,6.06,0,0,1,4-1.65,6.5,6.5,0,0,1,2.07.26,12,12,0,0,1,1.95.74,6.52,6.52,0,0,1,.78.51,2.89,2.89,0,0,1,.62.64,2.28,2.28,0,0,1,.3,2.15,1.63,1.63,0,0,1-.09.19l-.1.17a2.05,2.05,0,0,0,0-.39.67.67,0,0,1-.28.41h0a2.86,2.86,0,0,1-.1.36,2.91,2.91,0,0,0-.3.67v.13c.28,0,.31-.18.31-.08s-.24.19-.32.23a2.29,2.29,0,0,0,.54,1.1c.19.19.38.34.47.46.21.31-.35.62-.45.75.09.21.15.23.18.35s-.36.26-.27.39.13.34,0,.44c-.37.26-.32.33-.21.89s-.22.78-.63.88-1.46-.26-1.8,0h0c-.77.59-1.38,1.84.62,4.72.16.22.72.89.36.89-1.51,0-4-3.24-7.52-1.13-.45.27,1.56-2.57,1.87-4.07a1.94,1.94,0,0,1-1-.47.68.68,0,0,0,.32.43.52.52,0,0,0-.17,0h-.16a1.9,1.9,0,0,1-1.2-.33,1.06,1.06,0,0,1-.4-.55,2.44,2.44,0,0,1-.08-.56.71.71,0,0,1-.27.35.85.85,0,0,1-.63.13A2.43,2.43,0,0,0,24.06,21.26Z"/><path class="cls-2" d="M91.28,23.62a1.33,1.33,0,0,1,1.25-.83,1.41,1.41,0,0,1,1.4,1.34,2,2,0,0,1-.14.77,5.84,5.84,0,0,1-5.47,3.31,6.16,6.16,0,0,1-6.26-5.92,23,23,0,0,1,0-3.32A6.19,6.19,0,0,1,88.32,13a5.83,5.83,0,0,1,5.47,3.32,2,2,0,0,1,.14.77,1.38,1.38,0,0,1-2.65.5,3.28,3.28,0,0,0-3-1.83c-2,0-3.28,1.5-3.42,3.55a17,17,0,0,0,0,2.67,3.35,3.35,0,0,0,3.42,3.46A3.27,3.27,0,0,0,91.28,23.62Z"/><path class="cls-2" d="M99.44,17.47a4.32,4.32,0,0,1,2.63-.81c2.65,0,4.22,1.58,4.22,4.56v5.37a1.4,1.4,0,1,1-2.8,0V21.37a1.77,1.77,0,0,0-1.88-2,3.11,3.11,0,0,0-2.17.87v6.37a1.39,1.39,0,0,1-1.37,1.44,1.44,1.44,0,0,1-1.42-1.44V14.42A1.39,1.39,0,0,1,98,13a1.41,1.41,0,0,1,1.4,1.44Z"/><path class="cls-2" d="M110.65,15.57a1.49,1.49,0,0,1-1.48-1.52,1.44,1.44,0,0,1,1.48-1.48,1.47,1.47,0,0,1,1.48,1.48A1.52,1.52,0,0,1,110.65,15.57Zm1.4,2.59v8.47a1.41,1.41,0,0,1-1.4,1.44,1.44,1.44,0,0,1-1.4-1.44V18.16a1.38,1.38,0,0,1,1.4-1.44A1.41,1.41,0,0,1,112.05,18.16Z"/><path class="cls-2" d="M118,14.46V26.63a1.39,1.39,0,0,1-1.39,1.44,1.43,1.43,0,0,1-1.4-1.44V14.46a1.4,1.4,0,1,1,2.79,0Z"/><path class="cls-2" d="M125.24,16.66a6.94,6.94,0,0,1,2.46.52V14.42A1.41,1.41,0,0,1,129.1,13a1.39,1.39,0,0,1,1.39,1.44V25.86a1,1,0,0,1-.5,1,8.11,8.11,0,0,1-4.38,1.29,4.6,4.6,0,0,1-4.94-4.34,19.77,19.77,0,0,1,0-2.88A4.27,4.27,0,0,1,125.24,16.66Zm.43,8.8a3.78,3.78,0,0,0,2-.65V19.89a4.66,4.66,0,0,0-2.19-.56,1.88,1.88,0,0,0-2.05,2,17,17,0,0,0,0,2A2,2,0,0,0,125.67,25.46Z"/><path class="cls-2" d="M140.16,18.26a1.33,1.33,0,0,1-1.32,1.32c-.48,0-.94-.21-1.56-.19s-1.09.39-1.09,1.35v5.91a1.4,1.4,0,1,1-2.79,0V20.22a3.3,3.3,0,0,1,3.67-3.56,8.56,8.56,0,0,1,1.79.16A1.49,1.49,0,0,1,140.16,18.26Z"/><path class="cls-2" d="M151.11,22a1.27,1.27,0,0,1-1.44,1.4h-5.55v.21c0,1.32,1,2,2.4,2a6.45,6.45,0,0,0,2.24-.46,1.25,1.25,0,0,1,1.83,1.1,1.29,1.29,0,0,1-.71,1.17,7.32,7.32,0,0,1-3.44.73,4.71,4.71,0,0,1-5-4.42,22.67,22.67,0,0,1,0-2.61,4.67,4.67,0,0,1,4.92-4.44,4.54,4.54,0,0,1,4.78,4.84Zm-2.92-.5c.15,0,.23-.08.23-.25a1.91,1.91,0,0,0-2.09-2.12,2.08,2.08,0,0,0-2.21,2.37Z"/><path class="cls-2" d="M163.22,26.63a1.4,1.4,0,0,1-1.4,1.44,1.44,1.44,0,0,1-1.4-1.44V21.35a1.85,1.85,0,0,0-2-2,4.27,4.27,0,0,0-2.05.5v6.74a1.39,1.39,0,0,1-1.4,1.44,1.43,1.43,0,0,1-1.39-1.44V18.82a1.05,1.05,0,0,1,.5-1,8,8,0,0,1,4.42-1.14c3.13,0,4.74,1.64,4.74,4.56Z"/><path class="cls-2" d="M167.91,15.51a4.85,4.85,0,0,1-.6,2.5,1.53,1.53,0,0,1-1.32.84,1.14,1.14,0,0,1-1.16-1.11c0-.63.56-1,.56-2.11V14.42a1.22,1.22,0,0,1,1.25-1.23,1.24,1.24,0,0,1,1.27,1.23Z"/><path class="cls-2" d="M177.51,24.5c0,2.34-1.94,3.63-4.36,3.63a6,6,0,0,1-4-1.21,1.26,1.26,0,1,1,1.56-2,4.56,4.56,0,0,0,2.48.69c1.09,0,1.59-.4,1.59-1s-.33-.77-1.21-1-.73-.15-1.55-.36c-1.71-.44-3-1.4-3-3.19,0-2.25,1.81-3.48,4.26-3.48a5.76,5.76,0,0,1,3.4.93,1.31,1.31,0,0,1,.12,1.86,1.48,1.48,0,0,1-1.81.17,4.57,4.57,0,0,0-1.82-.46c-1,0-1.48.4-1.48.9s.31.73,1.25.94l1.48.33C176.49,21.83,177.51,22.85,177.51,24.5Z"/><path class="cls-2" d="M185.11,14.61a1.45,1.45,0,0,1,1.44-1.46A1.42,1.42,0,0,1,188,14.61v4.61h6.61V14.61A1.45,1.45,0,0,1,196,13.15a1.42,1.42,0,0,1,1.44,1.46v12A1.44,1.44,0,0,1,196,28.05a1.48,1.48,0,0,1-1.42-1.48V22H188v4.57a1.41,1.41,0,0,1-1.42,1.46,1.46,1.46,0,0,1-1.44-1.46Z"/><path class="cls-2" d="M205.29,28.13a4.73,4.73,0,0,1-5-4.23,24.86,24.86,0,0,1,0-3,5.07,5.07,0,0,1,10,0,24.36,24.36,0,0,1,0,3A4.7,4.7,0,0,1,205.29,28.13Zm2.21-6.78a2.06,2.06,0,0,0-2.21-2,2.09,2.09,0,0,0-2.23,2,14.58,14.58,0,0,0,0,2.09,2.09,2.09,0,0,0,2.23,2,2.07,2.07,0,0,0,2.21-2A18.22,18.22,0,0,0,207.5,21.35Z"/><path class="cls-2" d="M221.15,24.5c0,2.34-1.94,3.63-4.36,3.63a6,6,0,0,1-4-1.21,1.31,1.31,0,0,1-.25-1.73,1.29,1.29,0,0,1,1.82-.25,4.53,4.53,0,0,0,2.48.69c1.09,0,1.59-.4,1.59-1s-.34-.77-1.21-1-.73-.15-1.55-.36c-1.71-.44-3-1.4-3-3.19,0-2.25,1.81-3.48,4.25-3.48a5.74,5.74,0,0,1,3.4.93,1.3,1.3,0,0,1,.13,1.86,1.49,1.49,0,0,1-1.82.17,4.49,4.49,0,0,0-1.81-.46c-1,0-1.48.4-1.48.9s.31.73,1.25.94l1.48.33C220.13,21.83,221.15,22.85,221.15,24.5Z"/><path class="cls-2" d="M228.56,28.13a5.36,5.36,0,0,1-2.38-.52v3.11a1.4,1.4,0,1,1-2.8,0v-12a.77.77,0,0,1,.36-.71,8.26,8.26,0,0,1,4.57-1.35,4.57,4.57,0,0,1,4.9,4.34,22.58,22.58,0,0,1,0,2.85A4.33,4.33,0,0,1,228.56,28.13Zm-.32-8.78a4.15,4.15,0,0,0-2.06.62V24.9a4.33,4.33,0,0,0,2.11.56,1.9,1.9,0,0,0,2.12-2,13.75,13.75,0,0,0,0-2A2,2,0,0,0,228.24,19.35Z"/><path class="cls-2" d="M237.41,15.57a1.5,1.5,0,0,1-1.49-1.52,1.45,1.45,0,0,1,1.49-1.48,1.47,1.47,0,0,1,1.48,1.48A1.52,1.52,0,0,1,237.41,15.57Zm1.39,2.59v8.47a1.4,1.4,0,0,1-1.39,1.44,1.44,1.44,0,0,1-1.4-1.44V18.16a1.38,1.38,0,0,1,1.4-1.44A1.4,1.4,0,0,1,238.8,18.16Z"/><path class="cls-2" d="M245.57,28.13c-2.59,0-3.76-1.77-3.76-4.11V15.78a1.41,1.41,0,0,1,1.4-1.46,1.42,1.42,0,0,1,1.4,1.46V17.2h2.6a1.23,1.23,0,1,1,0,2.46h-2.6V24c0,1,.43,1.54,1.35,1.54a4.77,4.77,0,0,0,1.3-.23A1.28,1.28,0,0,1,249,26.46a1.32,1.32,0,0,1-.88,1.23A6.48,6.48,0,0,1,245.57,28.13Z"/><path class="cls-2" d="M259.61,26a1,1,0,0,1-.5,1,8,8,0,0,1-4.4,1.15c-3,0-4.41-1.69-4.41-3.67,0-1.77,1.23-3.4,4.3-3.4a9,9,0,0,1,2.32.31v-.56c0-1.09-.52-1.63-2-1.63a7.1,7.1,0,0,0-2,.35c-1.19.38-1.92-.23-1.92-1.08a1.31,1.31,0,0,1,.92-1.27,8.75,8.75,0,0,1,3.07-.52c2.94,0,4.61,1.29,4.61,4.23Zm-2.69-.79V23.33a6.83,6.83,0,0,0-2.09-.33c-1.13,0-1.81.56-1.81,1.35s.73,1.4,1.87,1.4A3.59,3.59,0,0,0,256.92,25.21Z"/><path class="cls-2" d="M265.27,14.46V26.63a1.4,1.4,0,0,1-1.4,1.44,1.44,1.44,0,0,1-1.4-1.44V14.46a1.41,1.41,0,0,1,1.4-1.46A1.43,1.43,0,0,1,265.27,14.46Z"/><path class="cls-2" d="M87.09,49a4.72,4.72,0,0,1-5-4.24,24.69,24.69,0,0,1,0-3,5.06,5.06,0,0,1,10,0,20.89,20.89,0,0,1,0,3A4.68,4.68,0,0,1,87.09,49Zm2.21-6.78a2.07,2.07,0,0,0-2.21-2,2.11,2.11,0,0,0-2.24,2,18.22,18.22,0,0,0,0,2.09,2.11,2.11,0,0,0,2.24,2,2.07,2.07,0,0,0,2.21-2A18.22,18.22,0,0,0,89.3,42.22Z"/><path class="cls-2" d="M95.5,37.52c0-2.52,1.44-3.88,3.71-3.88a8.82,8.82,0,0,1,2.11.27,1.33,1.33,0,0,1,1.08,1.34,1.2,1.2,0,0,1-1.31,1.21c-.46,0-1-.19-1.61-.19s-1.19.46-1.19,1.36v.44h2.42a1.23,1.23,0,1,1,0,2.46H98.29v6.93a1.4,1.4,0,0,1-1.39,1.48,1.43,1.43,0,0,1-1.4-1.48V40.53H95a1.23,1.23,0,1,1,0-2.46h.5Z"/><path class="cls-2" d="M112.94,44v3.41a1.47,1.47,0,0,1-1.42,1.48,1.49,1.49,0,0,1-1.43-1.48V36A1.77,1.77,0,0,1,112,34.1h4.16a4.85,4.85,0,0,1,5.11,5c0,3.15-2.23,5-5.3,5Zm3-2.75c1.75,0,2.5-.83,2.5-2.19S117.6,36.9,116,36.9h-3v4.38Z"/><path class="cls-2" d="M126.26,38.34a4.29,4.29,0,0,1,2.63-.82c2.65,0,4.21,1.59,4.21,4.57v5.37a1.4,1.4,0,1,1-2.79,0V42.24a1.77,1.77,0,0,0-1.88-2,3.09,3.09,0,0,0-2.17.87V47.5a1.4,1.4,0,0,1-1.38,1.44,1.44,1.44,0,0,1-1.42-1.44V35.29a1.4,1.4,0,1,1,2.8,0Z"/><path class="cls-2" d="M137.46,36.44A1.5,1.5,0,0,1,136,34.92a1.45,1.45,0,0,1,1.48-1.49A1.48,1.48,0,0,1,139,34.92,1.53,1.53,0,0,1,137.46,36.44Zm1.4,2.59V47.5a1.41,1.41,0,0,1-1.4,1.44,1.43,1.43,0,0,1-1.39-1.44V39a1.37,1.37,0,0,1,1.39-1.44A1.4,1.4,0,0,1,138.86,39Z"/><path class="cls-2" d="M144.77,35.33V47.5a1.4,1.4,0,0,1-1.4,1.44A1.44,1.44,0,0,1,142,47.5V35.33a1.4,1.4,0,1,1,2.8,0Z"/><path class="cls-2" d="M156.58,46.87a1,1,0,0,1-.5,1,8,8,0,0,1-4.4,1.15c-3,0-4.41-1.69-4.41-3.67,0-1.78,1.23-3.4,4.3-3.4a9,9,0,0,1,2.32.31v-.56c0-1.09-.52-1.63-2-1.63a7.17,7.17,0,0,0-2,.35c-1.19.38-1.92-.23-1.92-1.08a1.31,1.31,0,0,1,.92-1.27,8.8,8.8,0,0,1,3.07-.53c2.94,0,4.61,1.3,4.61,4.24Zm-2.69-.79V44.2a6.83,6.83,0,0,0-2.09-.33c-1.13,0-1.81.56-1.81,1.35s.73,1.4,1.87,1.4A3.59,3.59,0,0,0,153.89,46.08Z"/><path class="cls-2" d="M163.7,37.52a6.73,6.73,0,0,1,2.46.53V35.29a1.41,1.41,0,0,1,1.4-1.44A1.39,1.39,0,0,1,169,35.29V46.73a1,1,0,0,1-.5,1A8.11,8.11,0,0,1,164.07,49a4.6,4.6,0,0,1-4.94-4.34,19.77,19.77,0,0,1,0-2.88A4.27,4.27,0,0,1,163.7,37.52Zm.43,8.81a3.81,3.81,0,0,0,2-.65V40.76a4.65,4.65,0,0,0-2.19-.57,1.89,1.89,0,0,0-2.05,2,17,17,0,0,0,0,2A2,2,0,0,0,164.13,46.33Z"/><path class="cls-2" d="M181.41,42.82a1.27,1.27,0,0,1-1.44,1.4h-5.55v.21c0,1.32,1,2,2.4,2a6.43,6.43,0,0,0,2.24-.45,1.25,1.25,0,0,1,1.83,1.1,1.27,1.27,0,0,1-.71,1.17,7.29,7.29,0,0,1-3.44.73,4.71,4.71,0,0,1-5-4.42,22.67,22.67,0,0,1,0-2.61,4.69,4.69,0,0,1,4.93-4.45,4.54,4.54,0,0,1,4.77,4.84Zm-2.92-.5c.15,0,.23-.08.23-.25a1.91,1.91,0,0,0-2.08-2.13,2.09,2.09,0,0,0-2.22,2.38Z"/><path class="cls-2" d="M186.72,35.33V47.5a1.4,1.4,0,0,1-1.4,1.44,1.44,1.44,0,0,1-1.4-1.44V35.33a1.41,1.41,0,0,1,1.4-1.46A1.43,1.43,0,0,1,186.72,35.33Z"/><path class="cls-2" d="M194.85,49a5.42,5.42,0,0,1-2.38-.52v3.11a1.4,1.4,0,1,1-2.79,0v-12a.76.76,0,0,1,.35-.71,8.28,8.28,0,0,1,4.57-1.36,4.58,4.58,0,0,1,4.91,4.34,22.74,22.74,0,0,1,0,2.86A4.33,4.33,0,0,1,194.85,49Zm-.31-8.78a4.23,4.23,0,0,0-2.07.62v4.93a4.4,4.4,0,0,0,2.11.56,1.91,1.91,0,0,0,2.13-2,17.17,17.17,0,0,0,0-2A2,2,0,0,0,194.54,40.22Z"/><path class="cls-2" d="M205,38.34a4.29,4.29,0,0,1,2.63-.82c2.64,0,4.21,1.59,4.21,4.57v5.37a1.4,1.4,0,1,1-2.8,0V42.24a1.77,1.77,0,0,0-1.87-2,3.07,3.07,0,0,0-2.17.87V47.5a1.4,1.4,0,0,1-1.38,1.44,1.44,1.44,0,0,1-1.42-1.44V35.29a1.4,1.4,0,1,1,2.8,0Z"/><path class="cls-2" d="M216.2,36.44a1.5,1.5,0,0,1-1.48-1.52,1.45,1.45,0,0,1,1.48-1.49,1.47,1.47,0,0,1,1.48,1.49A1.52,1.52,0,0,1,216.2,36.44ZM217.6,39V47.5a1.41,1.41,0,0,1-1.4,1.44,1.44,1.44,0,0,1-1.4-1.44V39a1.38,1.38,0,0,1,1.4-1.44A1.41,1.41,0,0,1,217.6,39Z"/><path class="cls-2" d="M229.5,46.87a1,1,0,0,1-.51,1,8,8,0,0,1-4.4,1.15c-3,0-4.4-1.69-4.4-3.67,0-1.78,1.23-3.4,4.3-3.4a8.84,8.84,0,0,1,2.31.31v-.56c0-1.09-.52-1.63-2-1.63a7.1,7.1,0,0,0-2,.35c-1.19.38-1.92-.23-1.92-1.08a1.31,1.31,0,0,1,.92-1.27,8.69,8.69,0,0,1,3.06-.53c3,0,4.62,1.3,4.62,4.24Zm-2.7-.79V44.2a6.76,6.76,0,0,0-2.08-.33c-1.13,0-1.82.56-1.82,1.35s.73,1.4,1.88,1.4A3.54,3.54,0,0,0,226.8,46.08Z"/></svg>